<svg width="40" height="22" viewBox="0 0 40 22" fill="none" xmlns="http://www.w3.org/2000/svg">
<path fill-rule="evenodd" clip-rule="evenodd" d="M35 11C35 16.9832 30.1875 21.8507 24.1953 21.9966V22H23.9182H8.31135C3.72112 22 -2.23517e-08 18.3063 -2.23517e-08 13.75C-2.23517e-08 9.19365 3.72112 5.5 8.31135 5.5C10.266 5.5 12.063 6.16976 13.4823 7.2907C15.0156 3.04061 19.1092 0 23.9182 0C30.0385 0 35 4.92487 35 11Z" fill="#C2C7D2"/>
<path fill-rule="evenodd" clip-rule="evenodd" d="M20 15.5C20 19.0355 22.75 21.9118 26.1741 21.998V22H26.3325H35.2507C37.8736 22 40 19.8174 40 17.125C40 14.4326 37.8736 12.25 35.2507 12.25C34.1337 12.25 33.1068 12.6458 32.2958 13.3081C31.4196 10.7967 29.0805 9 26.3325 9C22.8351 9 20 11.9101 20 15.5Z" fill="#C2C7D2"/>
</svg>
