<svg width="36" height="34" viewBox="0 0 36 34" fill="none" xmlns="http://www.w3.org/2000/svg">
<path fill-rule="evenodd" clip-rule="evenodd" d="M35.8262 11.9283C35.8262 17.9115 31.0137 22.779 25.0214 22.925V22.9283H24.7444H9.13752C4.54729 22.9283 0.826172 19.2347 0.826172 14.6783C0.826172 10.122 4.54729 6.42834 9.13752 6.42834C11.0922 6.42834 12.8892 7.09811 14.3084 8.21904C15.8418 3.96896 19.9354 0.928345 24.7444 0.928345C30.8647 0.928345 35.8262 5.85321 35.8262 11.9283Z" fill="#C2C7D2"/>
<line x1="25.9099" y1="20.0139" x2="25.9099" y2="27.0139" stroke="#2DA1F5"/>
<line x1="22.9785" y1="25.4277" x2="28.8528" y2="21.5952" stroke="#2DA1F5"/>
<line x1="22.9241" y1="21.6735" x2="28.6919" y2="25.6472" stroke="#2DA1F5"/>
<line x1="18.353" y1="26.0717" x2="18.353" y2="33.0717" stroke="#2DA1F5"/>
<line x1="15.4216" y1="31.4853" x2="21.2959" y2="27.6528" stroke="#2DA1F5"/>
<line x1="15.3672" y1="27.7313" x2="21.135" y2="31.7051" stroke="#2DA1F5"/>
<line x1="9.37836" y1="24.7057" x2="9.37836" y2="29.3221" stroke="#2DA1F5" stroke-width="0.75"/>
<line x1="7.37517" y1="28.2381" x2="11.2492" y2="25.7106" stroke="#2DA1F5" stroke-width="0.75"/>
<line x1="7.38963" y1="25.763" x2="11.1935" y2="28.3836" stroke="#2DA1F5" stroke-width="0.75"/>
</svg>
