<svg width="35" height="32" viewBox="0 0 35 32" fill="none" xmlns="http://www.w3.org/2000/svg">
<path fill-rule="evenodd" clip-rule="evenodd" d="M35 11C35 16.9832 30.1875 21.8507 24.1953 21.9966V22H23.9182H8.31135C3.72112 22 -2.23517e-08 18.3063 -2.23517e-08 13.75C-2.23517e-08 9.19365 3.72112 5.5 8.31135 5.5C10.266 5.5 12.063 6.16976 13.4823 7.2907C15.0156 3.04061 19.1092 0 23.9182 0C30.0385 0 35 4.92487 35 11Z" fill="#C2C7D2"/>
<path d="M30 28C30 29.6569 28.6569 31 27 31C25.3431 31 24 29.6569 24 28C24 26.3431 26 24.5 27 23C28 24.5 30 26.3431 30 28Z" fill="#2DA1F5"/>
<path d="M13 29C13 30.6569 11.6569 32 10 32C8.34315 32 7 30.6569 7 29C7 27.3431 9 25.5 10 24C11 25.5 13 27.3431 13 29Z" fill="#2DA1F5"/>
<path d="M20 26.125C20 27.1605 19.1046 28 18 28C16.8954 28 16 27.1605 16 26.125C16 25.0895 17.3333 23.9375 18 23C18.6667 23.9375 20 25.0895 20 26.125Z" fill="#2DA1F5"/>
</svg>
