<svg width="41" height="31" viewBox="0 0 41 31" fill="none" xmlns="http://www.w3.org/2000/svg">
<path d="M26 13C26 20.1797 20.1797 26 13 26C5.8203 26 0 20.1797 0 13C0 5.8203 5.8203 0 13 0C20.1797 0 26 5.8203 26 13Z" fill="#FFB800"/>
<path fill-rule="evenodd" clip-rule="evenodd" d="M41 20C41 25.9832 36.1875 30.8507 30.1953 30.9966V31H29.9182H14.3113C9.72112 31 6 27.3063 6 22.75C6 18.1937 9.72112 14.5 14.3113 14.5C16.266 14.5 18.063 15.1698 19.4823 16.2907C21.0156 12.0406 25.1092 9 29.9182 9C36.0385 9 41 13.9249 41 20Z" fill="#D9DDE5"/>
</svg>
