<svg width="39" height="40" viewBox="0 0 39 40" fill="none" xmlns="http://www.w3.org/2000/svg">
<path d="M32 18.5C32 25.4036 25.9036 39.5 19 39.5C21.5 26.5 7 23.9036 7 17C7 10.0964 12.5964 6 19.5 6C26.4036 6 32 11.5964 32 18.5Z" fill="#9C9C9C"/>
<path fill-rule="evenodd" clip-rule="evenodd" d="M35 11C35 16.9832 30.1875 21.8507 24.1953 21.9966V22H23.9182H8.31135C3.72112 22 -2.23517e-08 18.3063 -2.23517e-08 13.75C-2.23517e-08 9.19365 3.72112 5.5 8.31135 5.5C10.266 5.5 12.063 6.16976 13.4823 7.2907C15.0156 3.04061 19.1092 0 23.9182 0C30.0385 0 35 4.92487 35 11Z" fill="#C2C7D2"/>
<path d="M28.658 17.1239C29.5232 15.6254 31.6862 15.6254 32.5514 17.1239L37.9048 26.3964C38.77 27.895 37.6885 29.7682 35.9581 29.7682H25.2512C23.5208 29.7682 22.4393 27.895 23.3045 26.3964L28.658 17.1239Z" fill="#D91E28"/>
<path d="M31.1075 24.8229H30.5764L30.1803 22.4289V20.7936H31.4953V22.4289L31.1075 24.8229ZM30.8293 26.7785C30.2983 26.7785 30.0791 26.5004 30.0791 26.1379V25.9356C30.0791 25.5731 30.2983 25.2949 30.8293 25.2949C31.3604 25.2949 31.5796 25.5731 31.5796 25.9356V26.1379C31.5796 26.5004 31.3604 26.7785 30.8293 26.7785Z" fill="white"/>
</svg>
